<svg xmlns="http://www.w3.org/2000/svg" xmlns:xlink="http://www.w3.org/1999/xlink" width="1440" zoomAndPan="magnify" viewBox="0 0 1080 767.999994" height="1024" preserveAspectRatio="xMidYMid meet" version="1.0"><path fill="#464534" d="M 533.238281 183.320312 C 597.546875 183.320312 654.3125 214.488281 689.421875 262.394531 C 691.71875 265.675781 695 266.988281 698.9375 266.660156 C 756.03125 258.457031 865.949219 247.300781 876.121094 284.707031 C 882.027344 307.019531 846.589844 336.550781 784.574219 366.082031 C 768.5 373.628906 750.78125 381.171875 731.75 389.046875 C 728.140625 390.359375 725.84375 393.3125 725.515625 397.25 C 715.015625 494.046875 632.984375 569.511719 533.238281 569.511719 C 469.253906 569.511719 412.488281 538.34375 377.382812 490.4375 C 375.085938 487.484375 371.804688 485.84375 367.867188 486.5 C 310.773438 494.703125 200.855469 505.859375 190.683594 468.125 C 184.777344 445.8125 220.214844 416.28125 282.226562 386.75 C 297.976562 379.53125 315.695312 371.660156 335.054688 364.113281 C 338.664062 362.472656 340.960938 359.519531 341.289062 355.910156 C 351.460938 258.785156 433.816406 183.320312 533.238281 183.320312 Z M 597.875 330.972656 C 603.453125 320.800781 616.25 317.519531 626.09375 323.425781 C 616.25 317.519531 612.640625 305.050781 618.546875 295.207031 C 612.640625 305.050781 600.171875 308.332031 590.332031 302.753906 C 600.171875 308.332031 603.453125 320.800781 597.875 330.972656 Z M 621.828125 285.035156 C 627.40625 275.191406 640.203125 271.910156 650.046875 277.488281 C 640.203125 271.910156 636.59375 259.113281 642.5 249.269531 C 636.59375 259.113281 624.125 262.722656 614.28125 256.816406 C 624.125 262.722656 627.40625 275.191406 621.828125 285.035156 Z M 543.082031 291.269531 C 554.566406 271.253906 579.832031 264.691406 599.84375 276.175781 C 579.832031 264.691406 573.269531 239.097656 584.753906 219.410156 C 573.269531 239.097656 547.675781 245.988281 527.988281 234.503906 C 547.675781 245.988281 554.566406 271.253906 543.082031 291.269531 Z M 710.421875 298.816406 C 715.34375 310.628906 719.609375 323.097656 722.234375 335.566406 C 722.890625 338.519531 724.53125 340.816406 727.15625 342.457031 C 729.78125 343.769531 732.40625 344.097656 735.359375 343.113281 C 753.078125 336.550781 770.796875 329.660156 788.183594 321.785156 C 788.183594 321.457031 788.511719 321.457031 788.511719 321.457031 L 820.996094 308.660156 C 794.417969 325.394531 755.046875 343.441406 725.515625 355.582031 C 668.421875 378.546875 598.207031 401.1875 543.738281 415.296875 C 503.378906 425.796875 465.972656 434.65625 425.285156 442.53125 C 425.285156 442.53125 425.285156 442.859375 425.285156 442.859375 L 377.710938 451.0625 C 377.710938 451.0625 377.710938 451.0625 377.382812 451.0625 C 336.367188 457.625 284.523438 463.53125 247.117188 461.5625 C 247.117188 461.5625 292.726562 457.953125 341.945312 449.09375 C 344.898438 448.765625 347.195312 447.125 348.835938 444.5 C 350.148438 441.875 350.476562 439.25 349.820312 436.296875 C 345.554688 423.828125 342.929688 411.03125 341.289062 397.90625 C 340.960938 394.625 339.320312 392 336.367188 390.359375 C 333.742188 388.71875 330.460938 388.390625 327.507812 389.703125 C 284.195312 408.078125 206.105469 445.15625 211.027344 462.875 C 216.605469 483.546875 329.476562 471.078125 369.835938 464.84375 C 464.660156 450.734375 577.207031 421.859375 667.765625 390.359375 C 703.859375 377.894531 741.59375 363.128906 775.71875 347.050781 C 827.886719 322.113281 858.730469 301.441406 855.777344 289.957031 C 850.855469 272.238281 764.890625 279.128906 718.296875 285.035156 C 715.015625 285.363281 712.390625 287.332031 710.75 289.957031 C 709.109375 292.910156 709.109375 295.863281 710.421875 298.816406 Z M 710.421875 298.816406 " fill-opacity="1" fill-rule="evenodd"/><path fill="#dcd9a1" d="M 547.414062 197.496094 C 611.722656 197.496094 668.488281 228.664062 703.597656 276.570312 C 705.894531 279.851562 709.175781 281.164062 713.113281 280.835938 C 770.207031 272.632812 880.125 261.476562 890.296875 298.882812 C 896.203125 321.195312 860.765625 350.726562 798.75 380.257812 C 782.675781 387.804688 764.957031 395.347656 745.925781 403.222656 C 742.316406 404.535156 740.019531 407.488281 739.691406 411.425781 C 729.191406 508.222656 647.160156 583.6875 547.414062 583.6875 C 483.429688 583.6875 426.664062 552.519531 391.558594 504.613281 C 389.261719 501.660156 385.980469 500.019531 382.042969 500.675781 C 324.949219 508.878906 215.03125 520.035156 204.859375 482.300781 C 198.953125 459.988281 234.390625 430.457031 296.402344 400.925781 C 312.152344 393.707031 329.871094 385.835938 349.230469 378.289062 C 352.839844 376.648438 355.136719 373.695312 355.464844 370.085938 C 365.636719 272.960938 447.992188 197.496094 547.414062 197.496094 Z M 612.050781 345.148438 C 617.628906 334.976562 630.425781 331.695312 640.269531 337.601562 C 630.425781 331.695312 626.816406 319.226562 632.722656 309.382812 C 626.816406 319.226562 614.347656 322.507812 604.507812 316.929688 C 614.347656 322.507812 617.628906 334.976562 612.050781 345.148438 Z M 636.003906 299.210938 C 641.582031 289.367188 654.378906 286.085938 664.222656 291.664062 C 654.378906 286.085938 650.769531 273.289062 656.675781 263.445312 C 650.769531 273.289062 638.300781 276.898438 628.457031 270.992188 C 638.300781 276.898438 641.582031 289.367188 636.003906 299.210938 Z M 557.257812 305.445312 C 568.742188 285.429688 594.007812 278.867188 614.019531 290.351562 C 594.007812 278.867188 587.445312 253.273438 598.929688 233.585938 C 587.445312 253.273438 561.851562 260.164062 542.164062 248.679688 C 561.851562 260.164062 568.742188 285.429688 557.257812 305.445312 Z M 724.597656 312.992188 C 729.519531 324.804688 733.785156 337.273438 736.410156 349.742188 C 737.066406 352.695312 738.707031 354.992188 741.332031 356.632812 C 743.957031 357.945312 746.582031 358.273438 749.535156 357.289062 C 767.253906 350.726562 784.972656 343.835938 802.359375 335.960938 C 802.359375 335.632812 802.6875 335.632812 802.6875 335.632812 L 835.171875 322.835938 C 808.59375 339.570312 769.222656 357.617188 739.691406 369.757812 C 682.597656 392.726562 612.382812 415.363281 557.914062 429.472656 C 517.554688 439.972656 480.148438 448.832031 439.460938 456.707031 C 439.460938 456.707031 439.460938 457.035156 439.460938 457.035156 L 391.886719 465.238281 C 391.886719 465.238281 391.886719 465.238281 391.558594 465.238281 C 350.542969 471.800781 298.699219 477.707031 261.292969 475.738281 C 261.292969 475.738281 306.902344 472.128906 356.121094 463.269531 C 359.074219 462.941406 361.371094 461.300781 363.011719 458.675781 C 364.324219 456.050781 364.652344 453.425781 363.996094 450.472656 C 359.730469 438.003906 357.105469 425.207031 355.464844 412.082031 C 355.136719 408.800781 353.496094 406.175781 350.542969 404.535156 C 347.917969 402.894531 344.636719 402.566406 341.683594 403.878906 C 298.371094 422.253906 220.28125 459.332031 225.203125 477.050781 C 230.78125 497.722656 343.652344 485.253906 384.011719 479.019531 C 478.835938 464.910156 591.382812 436.035156 681.941406 404.535156 C 718.035156 392.070312 755.769531 377.304688 789.894531 361.226562 C 842.0625 336.289062 872.90625 315.617188 869.953125 304.132812 C 865.03125 286.414062 779.066406 293.304688 732.472656 299.210938 C 729.191406 299.539062 726.566406 301.507812 724.925781 304.132812 C 723.285156 307.085938 723.285156 310.039062 724.597656 312.992188 Z M 724.597656 312.992188 " fill-opacity="1" fill-rule="evenodd"/></svg>