<svg width="62" height="44" viewBox="0 0 62 44" fill="none" xmlns="http://www.w3.org/2000/svg">
<g id="Desain tanpa judul (4) 1">
<path id="Vector" fill-rule="evenodd" clip-rule="evenodd" d="M30.612 10.5029C34.3038 10.5029 37.5625 12.2886 39.5781 15.0332C39.7099 15.2212 39.8983 15.2964 40.1243 15.2776C43.4019 14.8076 49.7121 14.1685 50.296 16.3115C50.6351 17.5899 48.6007 19.2818 45.0405 20.9737C44.1177 21.406 43.1006 21.8382 42.008 22.2893C41.8008 22.3645 41.669 22.5337 41.6501 22.7593C41.0473 28.305 36.3381 32.6285 30.612 32.6285C26.9388 32.6285 23.68 30.8428 21.6647 28.0982C21.5329 27.929 21.3445 27.835 21.1185 27.8726C17.8408 28.3426 11.5307 28.9817 10.9468 26.8199C10.6077 25.5415 12.6421 23.8497 16.202 22.1578C17.1062 21.7442 18.1234 21.2932 19.2348 20.8609C19.442 20.7669 19.5738 20.5977 19.5927 20.3909C20.1766 14.8264 24.9044 10.5029 30.612 10.5029ZM34.3226 18.9622C34.6428 18.3794 35.3775 18.1914 35.9426 18.5298C35.3775 18.1914 35.1703 17.4771 35.5093 16.9131C35.1703 17.4771 34.4545 17.6651 33.8896 17.3455C34.4545 17.6651 34.6428 18.3794 34.3226 18.9622ZM35.6977 16.3303C36.0179 15.7664 36.7526 15.5784 37.3177 15.898C36.7526 15.5784 36.5453 14.8452 36.8844 14.2813C36.5453 14.8452 35.8295 15.052 35.2644 14.7136C35.8295 15.052 36.0179 15.7664 35.6977 16.3303ZM31.1771 16.6875C31.8364 15.5408 33.2868 15.1648 34.4356 15.8228C33.2868 15.1648 32.9101 13.6985 33.5694 12.5706C32.9101 13.6985 31.4408 14.0933 30.3106 13.4353C31.4408 14.0933 31.8364 15.5408 31.1771 16.6875ZM40.7836 17.1199C41.0662 17.7967 41.3111 18.511 41.4618 19.2254C41.4994 19.3946 41.5936 19.5261 41.7443 19.6201C41.895 19.6953 42.0457 19.7141 42.2152 19.6577C43.2324 19.2818 44.2496 18.887 45.2477 18.4358C45.2477 18.417 45.2666 18.417 45.2666 18.417L47.1314 17.6839C45.6056 18.6426 43.3454 19.6765 41.6501 20.3721C38.3725 21.6878 34.3417 22.9849 31.2148 23.7933C28.8978 24.3948 26.7504 24.9024 24.4147 25.3536V25.3724L21.6836 25.8423C21.6836 25.8423 21.6836 25.8423 21.6647 25.8423C19.3101 26.2183 16.3339 26.5567 14.1865 26.4439C14.1865 26.4439 16.8048 26.2371 19.6303 25.7295C19.7999 25.7107 19.9317 25.6167 20.0259 25.4663C20.1013 25.316 20.1201 25.1656 20.0824 24.9964C19.8375 24.282 19.6869 23.5489 19.5927 22.7969C19.5738 22.6089 19.4796 22.4585 19.3101 22.3645C19.1594 22.2705 18.9711 22.2517 18.8015 22.3269C16.3151 23.3797 11.8321 25.5039 12.1147 26.5191C12.4349 27.7034 18.9145 26.9891 21.2315 26.6319C26.6751 25.8235 33.1361 24.1692 38.3348 22.3645C40.4069 21.6504 42.5731 20.8045 44.5322 19.8833C47.527 18.4546 49.2976 17.2703 49.1281 16.6123C48.8456 15.5972 43.9105 15.992 41.2357 16.3303C41.0473 16.3491 40.8966 16.4619 40.8025 16.6123C40.7083 16.7815 40.7083 16.9507 40.7836 17.1199Z" fill="#464534"/>
<path id="Vector_2" fill-rule="evenodd" clip-rule="evenodd" d="M31.4245 11.3145C35.1163 11.3145 38.375 13.1001 40.3906 15.8447C40.5224 16.0327 40.7108 16.1079 40.9368 16.0891C44.2144 15.6192 50.5245 14.98 51.1085 17.1231C51.4476 18.4014 49.4132 20.0933 45.853 21.7852C44.9302 22.2176 43.9131 22.6497 42.8205 23.1009C42.6133 23.1761 42.4815 23.3453 42.4626 23.5708C41.8598 29.1165 37.1506 33.44 31.4245 33.44C27.7513 33.44 24.4925 31.6543 22.4772 28.9097C22.3454 28.7405 22.157 28.6465 21.931 28.6841C18.6533 29.1541 12.3432 29.7933 11.7593 27.6314C11.4202 26.3531 13.4546 24.6612 17.0145 22.9693C17.9187 22.5557 18.9359 22.1048 20.0473 21.6724C20.2545 21.5784 20.3863 21.4092 20.4052 21.2024C20.9891 15.638 25.7169 11.3145 31.4245 11.3145ZM35.1351 19.7737C35.4553 19.1909 36.19 19.003 36.7551 19.3413C36.19 19.003 35.9828 18.2886 36.3218 17.7246C35.9828 18.2886 35.267 18.4766 34.7021 18.157C35.267 18.4766 35.4553 19.1909 35.1351 19.7737ZM36.5102 17.1419C36.8304 16.5779 37.5651 16.3899 38.1302 16.7095C37.5651 16.3899 37.3578 15.6568 37.6969 15.0928C37.3578 15.6568 36.642 15.8635 36.0769 15.5252C36.642 15.8635 36.8304 16.5779 36.5102 17.1419ZM31.9896 17.499C32.6489 16.3523 34.0993 15.9763 35.2481 16.6343C34.0993 15.9763 33.7226 14.51 34.3819 13.3821C33.7226 14.51 32.2533 14.9048 31.1231 14.2468C32.2533 14.9048 32.6489 16.3523 31.9896 17.499ZM41.5961 17.9314C41.8787 18.6082 42.1236 19.3225 42.2743 20.0369C42.3119 20.2061 42.4061 20.3377 42.5568 20.4317C42.7075 20.5069 42.8582 20.5257 43.0277 20.4693C44.0449 20.0933 45.0621 19.6985 46.0602 19.2473C46.0602 19.2285 46.0791 19.2285 46.0791 19.2285L47.9439 18.4954C46.4181 19.4541 44.1579 20.4881 42.4626 21.1836C39.185 22.4995 35.1542 23.7964 32.0273 24.6048C29.7103 25.2063 27.5629 25.7139 25.2272 26.1651V26.1839L22.4961 26.6538C22.4961 26.6538 22.4961 26.6538 22.4772 26.6538C20.1226 27.0298 17.1464 27.3682 14.999 27.2554C14.999 27.2554 17.6173 27.0486 20.4428 26.5411C20.6124 26.5223 20.7442 26.4283 20.8384 26.2779C20.9138 26.1275 20.9326 25.9771 20.8949 25.8079C20.65 25.0935 20.4994 24.3604 20.4052 23.6084C20.3863 23.4205 20.2921 23.2701 20.1226 23.1761C19.9719 23.0821 19.7836 23.0633 19.614 23.1385C17.1276 24.1912 12.6446 26.3155 12.9272 27.3306C13.2474 28.5149 19.727 27.8006 22.044 27.4434C27.4876 26.6351 33.9486 24.9808 39.1473 23.1761C41.2194 22.4619 43.3856 21.616 45.3447 20.6948C48.3395 19.2661 50.1101 18.0818 49.9406 17.4238C49.6581 16.4087 44.723 16.8035 42.0482 17.1419C41.8598 17.1607 41.7092 17.2735 41.615 17.4238C41.5208 17.593 41.5208 17.7622 41.5961 17.9314Z" fill="#DCD9A1"/>
</g>
</svg>
